<svg xmlns="http://www.w3.org/2000/svg" viewBox="0 0 634 861" width="634" height="861"><defs><clipPath id="mask-2680268744528432290">
<path d="M498.02844155641907,926.842406220407 C498.02844155641907,926.842406220407 242.78513103088738,527.0075846105245 242.78513103088738,527.0075846105245 C242.78513103088738,527.0075846105245 756.1286468673753,528.8457778951386 756.1286468673753,528.8457778951386 C756.1286468673753,528.8457778951386 498.02844155641907,926.842406220407 498.02844155641907,926.842406220407 Z" fill="#1f285d"/></clipPath></defs><g transform="matrix(1,0,0,1,-162.98824904,-65.05908309)">
<g>
	<g>
		<path d="M499.99999999999505,78.80868948590279 C664.3847401526153,78.80868948590279 797.91459781526,212.3385471485474 797.91459781526,376.7232873011677 C797.91459781526,541.108027453788 664.3847401526153,674.6378851164327 499.99999999999505,674.6378851164327 C335.6152598473748,674.6378851164327 202.08540218473013,541.108027453788 202.08540218473013,376.7232873011677 C202.08540218473013,212.3385471485474 335.6152598473748,78.80868948590279 499.99999999999505,78.80868948590279 Z" fill="#1f285d"/>
	</g>
	<g>
		<path d="M498.02844155641907,926.842406220407 C498.02844155641907,926.842406220407 242.78513103088738,527.0075846105245 242.78513103088738,527.0075846105245 C242.78513103088738,527.0075846105245 756.1286468673753,528.8457778951386 756.1286468673753,528.8457778951386 C756.1286468673753,528.8457778951386 498.02844155641907,926.842406220407 498.02844155641907,926.842406220407 Z" fill="#1f285d"/>
	</g>
	<g clip-path="url(#mask-2680268744528432290)"/>
	<g>
		<path d="M278.49294563093304,333.5183976808337 C278.49294563093304,320.86010210695 295.70893563102084,310.57775835251715 316.90304226883734,310.57775835251715 L683.0969577311524,310.57775835251715 C704.2910643689689,310.57775835251715 721.5070543690567,320.86010210695 721.5070543690567,333.5183976808337 L721.5070543690567,419.92817692150163 C721.5070543690567,432.5864724953853 704.2910643689689,442.86881624981817 683.0969577311524,442.86881624981817 L316.90304226883734,442.86881624981817 C295.70893563102084,442.86881624981817 278.49294563093304,432.5864724953853 278.49294563093304,419.92817692150163 L278.49294563093304,333.5183976808337 Z" transform="matrix(1,0,0,1,0,0)" fill="#fefefe" stroke="#ebf9ff" stroke-width="2"/>
	</g>
	<g>
		<path d="M456.7951103796611,598.2303416702296 C444.1368148057775,598.2303416702296 433.8544710513446,581.0143516701418 433.8544710513446,559.8202450323253 L433.8544710513446,193.62632957001017 C433.8544710513446,172.4322229321937 444.1368148057775,155.21623293210584 456.79511037966114,155.21623293210584 L543.2048896203291,155.21623293210584 C555.8631851942127,155.21623293210584 566.1455289486456,172.4322229321937 566.1455289486456,193.62632957001017 L566.1455289486456,559.8202450323253 C566.1455289486456,581.0143516701418 555.8631851942127,598.2303416702296 543.2048896203291,598.2303416702296 L456.7951103796611,598.2303416702296 Z" transform="matrix(1,0,0,1,0,0)" fill="#fefefe" stroke="#ebf9ff" stroke-width="2"/>
	</g>
	<g>
		<path d="" fill="#fefefe" stroke="#201533" stroke-width="2"/>
	</g>
	<g>
		<path d="M433.85442105134456,442.86886624981827 C472.0058995145031,429.3595803488802 510.15737797766155,415.8502944479422 532.2058959605451,393.80177646505865 C554.2544139434287,371.7532584821751 560.1999714460372,341.1655084173462 566.1455289486456,310.5777583525172" transform="matrix(1.252713823,0,0,1.280607566,-122.424064837,-111.068238529)" fill="none" stroke="#96b7c6" stroke-width="30" stroke-linecap="round"/>
	</g>
	<g>
		<path d="M567.1461916484794,263.7410160220771 L606.4423384557502,263.7410160220771 L606.4423384557502,309.578961316168 L567.1461916484794,309.578961316168 L567.1461916484794,263.7410160220771 Z" fill="#1f285d"/>
	</g>
	<g>
		<path d="M393.54831661887624,443.87118060722656 L432.84446342614694,443.87118060722656 L432.84446342614694,489.70912590131735 L393.54831661887624,489.70912590131735 L393.54831661887624,443.87118060722656 Z" fill="#1f285d"/>
	</g>
	<g>
		<path d="M340.87441677184296,65.05908308984547 C373.8930003897379,65.05908308984547 400.71402262468627,91.88010532479383 400.71402262468627,124.89868894268875 C400.71402262468627,157.91727256058368 373.8930003897379,184.73829479553203 340.87441677184296,184.73829479553203 C307.855833153948,184.73829479553203 281.03481091899965,157.91727256058368 281.03481091899965,124.89868894268875 C281.03481091899965,91.88010532479383 307.855833153948,65.05908308984547 340.87441677184296,65.05908308984547 Z" transform="matrix(1,0,0,1,0,0)" fill="#1f285d" stroke="#ebf9ff" stroke-width="20"/>
	</g>
	<g>
		<path d="M242.61463976171055,178.29332833654595 C269.3414022119774,178.29332833654595 291.05157301283185,200.00349913740035 291.05157301283185,226.73026158766726 C291.05157301283185,253.45702403793416 269.3414022119774,275.16719483878853 242.61463976171055,275.16719483878853 C215.88787731144365,275.16719483878853 194.17770651058925,253.45702403793416 194.17770651058925,226.73026158766726 C194.17770651058925,200.00349913740035 215.88787731144365,178.29332833654595 242.61463976171055,178.29332833654595 Z" transform="matrix(1,0,0,1,0,0)" fill="#1f285d" stroke="#ebf9ff" stroke-width="15"/>
	</g>
	<g>
		<path d="M202.0854021847301,298.52898101114624 C223.65861614464188,298.52898101114624 241.18255532974075,316.05292019624505 241.18255532974075,337.62613415615687 C241.18255532974075,359.1993481160687 223.65861614464188,376.7232873011675 202.0854021847301,376.7232873011675 C180.51218822481832,376.7232873011675 162.98824903971945,359.1993481160687 162.98824903971945,337.62613415615687 C162.98824903971945,316.05292019624505 180.51218822481832,298.52898101114624 202.0854021847301,298.52898101114624 Z" fill="#1f285d" stroke="#ebf9ff" stroke-width="15"/>
	</g>
	<g>
		<path d="M210.12099533235147,409.90648022369305 C228.30911059160417,409.90648022369305 243.08333135847667,424.6807009905656 243.08333135847667,442.8688162498183 C243.08333135847667,461.056931509071 228.30911059160417,475.8311522759435 210.12099533235147,475.8311522759435 C191.93288007309877,475.8311522759435 177.15865930622627,461.056931509071 177.15865930622627,442.8688162498183 C177.15865930622627,424.6807009905656 191.93288007309877,409.90648022369305 210.12099533235147,409.90648022369305 Z" transform="matrix(1,0,0,1,0,0)" fill="#1f285d" stroke="#ebf9ff" stroke-width="10"/>
	</g>
</g></g></svg>